<svg xmlns="http://www.w3.org/2000/svg" viewBox="0 0 1440 320"><path fill="#3F3D56" fill-opacity="1" d="M0,256L30,245.3C60,235,120,213,180,202.7C240,192,300,192,360,197.3C420,203,480,213,540,218.7C600,224,660,224,720,240C780,256,840,288,900,261.3C960,235,1020,149,1080,144C1140,139,1200,213,1260,224C1320,235,1380,181,1410,154.7L1440,128L1440,320L1410,320C1380,320,1320,320,1260,320C1200,320,1140,320,1080,320C1020,320,960,320,900,320C840,320,780,320,720,320C660,320,600,320,540,320C480,320,420,320,360,320C300,320,240,320,180,320C120,320,60,320,30,320L0,320Z"></path></svg>